#!OML:ASF F:\VICON\USERDATA\INSTALL\rory3\rory3.ASF
:FULLY-SPECIFIED
:DEGREES
743
root 4.26543 15.8452 1.87285 22.6731 -5.55099 -3.08299
lowerback 9.33505 -0.29424 1.87875
upperback 8.99495 -0.287037 -1.00097
thorax 4.13807 -0.0215903 -2.0786
lowerneck -17.804 -0.613991 -0.707764
upperneck 37.9256 0.491436 -2.99611
head 16.7139 -0.350368 -1.1172
rclavicle -2.78299e-015 0
rhumerus -63.8171 69.4609 -59.2649
rradius 57.3658
rwrist -19.9475
rhand -5.49429 -40.2234
rfingers 7.12502
rthumb 20.3184 -69.1806
lclavicle -2.78299e-015 0
lhumerus -49.1125 -78.5609 39.556
lradius 58.1823
lwrist 63.3942
lhand -26.9025 -25.8027
lfingers 7.12502
lthumb -0.325898 4.17677
rfemur -75.8855 -1.17062 20.9803
rtibia 37.1583
rfoot 37.1079 -2.1417
rtoes 4.21966
lfemur -57.6564 1.3583 -27.3652
ltibia 60.3582
lfoot -24.1191 6.25252
ltoes 10.1098
744
root 4.26584 15.8442 1.87654 22.6785 -5.65978 -3.09961
lowerback 9.41957 -0.280059 1.80206
upperback 8.95641 -0.271783 -0.992424
thorax 4.05094 -0.0198746 -2.027
lowerneck -17.7537 -0.507352 -0.47695
upperneck 37.9964 0.714108 -3.36514
head 16.7472 -0.279168 -1.28208
rclavicle 2.38542e-015 8.74653e-015
rhumerus -63.5475 69.2522 -59.0524
rradius 57.1872
rwrist -19.4458
rhand -6.01903 -40.2222
rfingers 7.12502
rthumb 19.8141 -69.2322
lclavicle 2.38542e-015 8.74653e-015
lhumerus -49.423 -78.4867 39.8746
lradius 58.1853
lwrist 63.4051
lhand -26.866 -26.283
lfingers 7.12502
lthumb -0.29062 3.69651
rfemur -75.8772 -1.05808 20.9308
rtibia 37.1559
rfoot 37.0329 -2.2117
rtoes 4.39024
lfemur -57.6758 1.46362 -27.3926
ltibia 60.3567
lfoot -24.0738 6.20921
ltoes 10.1384
745
root 4.26555 15.8448 1.88094 22.6655 -5.7633 -2.97499
lowerback 9.52449 -0.261009 1.61148
upperback 8.8815 -0.255625 -1.00799
thorax 3.91352 -0.0234003 -1.9364
lowerneck -17.6506 -0.463271 -0.422276
upperneck 37.9846 0.811841 -3.5009
head 16.7191 -0.250088 -1.33263
rclavicle -7.15625e-015 1.39149e-014
rhumerus -63.3321 69.1081 -58.805
rradius 57.0302
rwrist -18.9755
rhand -6.0831 -40.1502
rfingers 7.12502
rthumb 19.7525 -69.1666
lclavicle -7.15625e-015 1.39149e-014
lhumerus -50.2502 -78.7301 40.6813
lradius 58.2565
lwrist 63.3365
lhand -27.2278 -26.7995
lfingers 7.12502
lthumb -0.640142 3.1793
rfemur -75.8677 -0.980147 20.693
rtibia 37.1574
rfoot 37.146 -2.65597
rtoes 5.03061
lfemur -57.6551 1.51761 -27.5646
ltibia 60.3385
lfoot -24.1084 6.22035
ltoes 10.0822
746
root 4.26725 15.8475 1.88547 22.7063 -5.6777 -3.02843
lowerback 9.54367 -0.285826 1.72072
upperback 8.83599 -0.281937 -0.968267
thorax 3.8534 -0.0330251 -1.95448
lowerneck -17.6511 -0.493603 -0.529054
upperneck 37.9446 0.769715 -3.41358
head 16.6961 -0.269942 -1.28147
rclavicle -1.31198e-014 7.95139e-015
rhumerus -63.361 69.1284 -58.7475
rradius 56.9929
rwrist -18.7221
rhand -6.41738 -40.405
rfingers 7.12502
rthumb 19.4311 -69.4541
lclavicle -1.31198e-014 7.95139e-015
lhumerus -50.7233 -78.958 41.1327
lradius 58.3484
lwrist 63.3297
lhand -27.8141 -27.2784
lfingers 7.12502
lthumb -1.20633 2.69792
rfemur -75.8662 -1.02176 20.7363
rtibia 37.1471
rfoot 37.0921 -2.16773
rtoes 4.42674
lfemur -57.6585 1.49412 -27.5051
ltibia 60.3284
lfoot -24.1379 6.20839
ltoes 10.137
747
root 4.26896 15.8491 1.89001 22.7752 -5.56241 -3.14639
lowerback 9.50864 -0.334516 1.8958
upperback 8.81866 -0.336633 -0.930486
thorax 3.85183 -0.0525506 -2.01017
lowerneck -17.7494 -0.472578 -0.459621
upperneck 38.0006 0.821658 -3.5202
head 16.7531 -0.255029 -1.3341
rclavicle -1.19271e-015 1.98785e-014
rhumerus -63.6444 69.494 -58.9406
rradius 57.121
rwrist -18.8116
rhand -6.30524 -40.4971
rfingers 7.12502
rthumb 19.5389 -69.5353
lclavicle -1.19271e-015 1.98785e-014
lhumerus -50.8898 -79.0585 41.245
lradius 58.3763
lwrist 63.2953
lhand -28.0385 -27.6047
lfingers 7.12502
lthumb -1.4231 2.37029
rfemur -75.8845 -1.07544 20.8714
rtibia 37.1084
rfoot 37.0533 -1.73183
rtoes 3.76166
lfemur -57.7018 1.48184 -27.3715
ltibia 60.324
lfoot -24.0991 6.13992
ltoes 10.0947
748
root 4.2716 15.852 1.88989 22.7805 -5.46171 -3.24135
lowerback 9.55165 -0.384533 2.04217
upperback 8.80852 -0.393428 -0.897959
thorax 3.81483 -0.0748641 -2.05477
lowerneck -17.8523 -0.467817 -0.527253
upperneck 38.0765 0.814742 -3.41437
head 16.8183 -0.254407 -1.27929
rclavicle 5.1684e-015 0
rhumerus -64.1789 70.0224 -59.3378
rradius 57.2902
rwrist -19.234
rhand -6.25517 -40.4728
rfingers 7.12502
rthumb 19.587 -69.5061
lclavicle 5.1684e-015 0
lhumerus -50.8159 -79.0544 41.1386
lradius 58.3487
lwrist 63.1661
lhand -27.5407 -27.2386
lfingers 7.12502
lthumb -0.942281 2.73906
rfemur -75.8442 -1.13178 20.973
rtibia 37.0483
rfoot 37.038 -1.41709
rtoes 3.1196
lfemur -57.6977 1.47609 -27.2654
ltibia 60.3146
lfoot -23.9911 6.09559
ltoes 10.0268
749
root 4.27887 15.863 1.88981 22.7194 -5.31099 -3.41286
lowerback 9.62441 -0.45132 2.34053
upperback 8.84747 -0.463227 -0.850164
thorax 3.81334 -0.0955697 -2.16808
lowerneck -18.0241 -0.477388 -0.731239
upperneck 38.214 0.755082 -3.09762
head 16.9308 -0.266195 -1.11771
rclavicle -1.07344e-014 1.98785e-015
rhumerus -64.2903 70.3546 -59.3416
rradius 57.3617
rwrist -19.578
rhand -6.57357 -40.6533
rfingers 7.12502
rthumb 19.2809 -69.7175
lclavicle -1.07344e-014 1.98785e-015
lhumerus -51.0105 -79.1788 41.2753
lradius 58.4248
lwrist 63.3335
lhand -26.9032 -26.6991
lfingers 7.12502
lthumb -0.326603 3.28044
rfemur -75.6769 -1.24646 21.2046
rtibia 36.9996
rfoot 37.0138 -1.28077
rtoes 3.188
lfemur -57.5946 1.45897 -27.0774
ltibia 60.2925
lfoot -23.9207 6.08804
ltoes 10.0989
